<svg width="16" height="16" viewBox="0 0 16 16" fill="none" xmlns="http://www.w3.org/2000/svg">
<path fill-rule="evenodd" clip-rule="evenodd" d="M3 1.5C3 1.22386 3.22386 1 3.5 1H12.5C12.7761 1 13 1.22386 13 1.5C13 1.77614 12.7761 2 12.5 2H3.5C3.22386 2 3 1.77614 3 1.5ZM1 4.5C1 4.22386 1.22386 4 1.5 4H14.5C14.7761 4 15 4.22386 15 4.5C15 4.77614 14.7761 5 14.5 5H1.5C1.22386 5 1 4.77614 1 4.5ZM3.5 7C3.22386 7 3 7.22386 3 7.5C3 7.77614 3.22386 8 3.5 8H12.5C12.7761 8 13 7.77614 13 7.5C13 7.22386 12.7761 7 12.5 7H3.5ZM1 10.5C1 10.2239 1.22386 10 1.5 10H14.5C14.7761 10 15 10.2239 15 10.5C15 10.7761 14.7761 11 14.5 11H1.5C1.22386 11 1 10.7761 1 10.5ZM3.5 13C3.22386 13 3 13.2239 3 13.5C3 13.7761 3.22386 14 3.5 14H12.5C12.7761 14 13 13.7761 13 13.5C13 13.2239 12.7761 13 12.5 13H3.5Z" fill="#C4C4C4"/>
</svg>
